<svg width="204" height="45" viewBox="0 0 204 45" fill="none" xmlns="http://www.w3.org/2000/svg">
<rect width="204" height="45" fill="white"/>
<rect x="10" y="6" width="175" height="30" rx="15" fill="black"/>
<g filter="url(#filter0_d_0_3)">
<path d="M88.0101 13.2H93.6741V30H88.0101V13.2ZM82.7781 30H77.1141V13.2H82.7781V30ZM88.3941 23.808H82.3941V19.152H88.3941V23.808ZM95.7072 30V26.52L101.779 20.904C102.163 20.536 102.443 20.216 102.619 19.944C102.811 19.672 102.939 19.432 103.003 19.224C103.067 19 103.099 18.792 103.099 18.6C103.099 18.184 102.963 17.864 102.691 17.64C102.419 17.4 102.011 17.28 101.467 17.28C100.971 17.28 100.499 17.416 100.051 17.688C99.6032 17.944 99.2512 18.328 98.9952 18.84L94.7232 16.704C95.3312 15.552 96.2432 14.616 97.4592 13.896C98.6752 13.176 100.187 12.816 101.995 12.816C103.323 12.816 104.499 13.032 105.523 13.464C106.547 13.896 107.347 14.504 107.923 15.288C108.499 16.072 108.787 17 108.787 18.072C108.787 18.616 108.715 19.16 108.571 19.704C108.443 20.248 108.171 20.824 107.755 21.432C107.339 22.024 106.723 22.688 105.907 23.424L101.347 27.576L100.459 25.608H109.171V30H95.7072ZM117.941 30.384C116.453 30.384 115.133 30.04 113.981 29.352C112.845 28.664 111.949 27.664 111.293 26.352C110.653 25.04 110.333 23.456 110.333 21.6C110.333 19.744 110.653 18.16 111.293 16.848C111.949 15.536 112.845 14.536 113.981 13.848C115.133 13.16 116.453 12.816 117.941 12.816C119.429 12.816 120.741 13.16 121.877 13.848C123.029 14.536 123.925 15.536 124.565 16.848C125.221 18.16 125.549 19.744 125.549 21.6C125.549 23.456 125.221 25.04 124.565 26.352C123.925 27.664 123.029 28.664 121.877 29.352C120.741 30.04 119.429 30.384 117.941 30.384ZM117.941 25.848C118.309 25.848 118.637 25.72 118.925 25.464C119.213 25.208 119.437 24.768 119.597 24.144C119.773 23.52 119.861 22.672 119.861 21.6C119.861 20.512 119.773 19.664 119.597 19.056C119.437 18.432 119.213 17.992 118.925 17.736C118.637 17.48 118.309 17.352 117.941 17.352C117.573 17.352 117.245 17.48 116.957 17.736C116.669 17.992 116.437 18.432 116.261 19.056C116.101 19.664 116.021 20.512 116.021 21.6C116.021 22.672 116.101 23.52 116.261 24.144C116.437 24.768 116.669 25.208 116.957 25.464C117.245 25.72 117.573 25.848 117.941 25.848Z" fill="#00A3FF"/>
</g>
<defs>
<filter id="filter0_d_0_3" x="73.1141" y="12.816" width="56.4346" height="25.568" filterUnits="userSpaceOnUse" color-interpolation-filters="sRGB">
<feFlood flood-opacity="0" result="BackgroundImageFix"/>
<feColorMatrix in="SourceAlpha" type="matrix" values="0 0 0 0 0 0 0 0 0 0 0 0 0 0 0 0 0 0 127 0" result="hardAlpha"/>
<feOffset dy="4"/>
<feGaussianBlur stdDeviation="2"/>
<feComposite in2="hardAlpha" operator="out"/>
<feColorMatrix type="matrix" values="0 0 0 0 0 0 0 0 0 0 0 0 0 0 0 0 0 0 0.25 0"/>
<feBlend mode="normal" in2="BackgroundImageFix" result="effect1_dropShadow_0_3"/>
<feBlend mode="normal" in="SourceGraphic" in2="effect1_dropShadow_0_3" result="shape"/>
</filter>
</defs>
</svg>
