<svg width="240" height="40" viewBox="0 0 240 40" fill="none" xmlns="http://www.w3.org/2000/svg">
<rect width="240" height="40" fill="#1E1E1E"/>
<rect width="240" height="40" rx="20" fill="black"/>
<path d="M109.119 23V14.2727H111.488V21.0909H115.017V23H109.119ZM124.089 18.6364C124.089 19.608 123.9 20.4276 123.523 21.0952C123.145 21.7599 122.635 22.2642 121.993 22.608C121.351 22.9489 120.635 23.1193 119.845 23.1193C119.05 23.1193 118.331 22.9474 117.689 22.6037C117.05 22.2571 116.541 21.7514 116.163 21.0866C115.788 20.419 115.601 19.6023 115.601 18.6364C115.601 17.6648 115.788 16.8466 116.163 16.1818C116.541 15.5142 117.05 15.0099 117.689 14.669C118.331 14.3253 119.05 14.1534 119.845 14.1534C120.635 14.1534 121.351 14.3253 121.993 14.669C122.635 15.0099 123.145 15.5142 123.523 16.1818C123.9 16.8466 124.089 17.6648 124.089 18.6364ZM121.652 18.6364C121.652 18.1136 121.582 17.6733 121.443 17.3153C121.307 16.9545 121.104 16.6818 120.834 16.4972C120.567 16.3097 120.237 16.2159 119.845 16.2159C119.453 16.2159 119.122 16.3097 118.852 16.4972C118.585 16.6818 118.382 16.9545 118.243 17.3153C118.106 17.6733 118.038 18.1136 118.038 18.6364C118.038 19.1591 118.106 19.6009 118.243 19.9616C118.382 20.3196 118.585 20.5923 118.852 20.7798C119.122 20.9645 119.453 21.0568 119.845 21.0568C120.237 21.0568 120.567 20.9645 120.834 20.7798C121.104 20.5923 121.307 20.3196 121.443 19.9616C121.582 19.6009 121.652 19.1591 121.652 18.6364ZM130.853 17.1534C130.816 17.0028 130.758 16.8707 130.678 16.7571C130.599 16.6406 130.499 16.5426 130.38 16.4631C130.264 16.3807 130.127 16.3196 129.971 16.2798C129.818 16.2372 129.649 16.2159 129.464 16.2159C129.066 16.2159 128.727 16.3111 128.445 16.5014C128.167 16.6918 127.954 16.9659 127.806 17.3239C127.661 17.6818 127.589 18.1136 127.589 18.6193C127.589 19.1307 127.659 19.5682 127.798 19.9318C127.937 20.2955 128.144 20.5739 128.42 20.767C128.695 20.9602 129.038 21.0568 129.447 21.0568C129.808 21.0568 130.107 21.0043 130.346 20.8991C130.588 20.794 130.768 20.6449 130.887 20.4517C131.007 20.2585 131.066 20.0312 131.066 19.7699L131.475 19.8125H129.481V18.125H133.35V19.3352C133.35 20.1307 133.181 20.8111 132.843 21.3764C132.508 21.9389 132.045 22.3707 131.454 22.6719C130.866 22.9702 130.191 23.1193 129.43 23.1193C128.58 23.1193 127.835 22.9389 127.193 22.5781C126.551 22.2173 126.049 21.7031 125.688 21.0355C125.33 20.3679 125.151 19.5739 125.151 18.6534C125.151 17.9318 125.261 17.2926 125.48 16.7358C125.701 16.179 126.008 15.7088 126.4 15.3253C126.792 14.9389 127.245 14.6477 127.759 14.4517C128.274 14.2528 128.825 14.1534 129.413 14.1534C129.93 14.1534 130.41 14.2273 130.853 14.375C131.299 14.5199 131.693 14.7273 132.034 14.9972C132.377 15.2642 132.654 15.581 132.865 15.9474C133.075 16.3139 133.203 16.7159 133.248 17.1534H130.853ZM142.91 18.6364C142.91 19.608 142.721 20.4276 142.343 21.0952C141.965 21.7599 141.455 22.2642 140.813 22.608C140.171 22.9489 139.455 23.1193 138.665 23.1193C137.87 23.1193 137.151 22.9474 136.509 22.6037C135.87 22.2571 135.361 21.7514 134.983 21.0866C134.608 20.419 134.421 19.6023 134.421 18.6364C134.421 17.6648 134.608 16.8466 134.983 16.1818C135.361 15.5142 135.87 15.0099 136.509 14.669C137.151 14.3253 137.87 14.1534 138.665 14.1534C139.455 14.1534 140.171 14.3253 140.813 14.669C141.455 15.0099 141.965 15.5142 142.343 16.1818C142.721 16.8466 142.91 17.6648 142.91 18.6364ZM140.472 18.6364C140.472 18.1136 140.403 17.6733 140.263 17.3153C140.127 16.9545 139.924 16.6818 139.654 16.4972C139.387 16.3097 139.057 16.2159 138.665 16.2159C138.273 16.2159 137.942 16.3097 137.672 16.4972C137.405 16.6818 137.202 16.9545 137.063 17.3153C136.927 17.6733 136.858 18.1136 136.858 18.6364C136.858 19.1591 136.927 19.6009 137.063 19.9616C137.202 20.3196 137.405 20.5923 137.672 20.7798C137.942 20.9645 138.273 21.0568 138.665 21.0568C139.057 21.0568 139.387 20.9645 139.654 20.7798C139.924 20.5923 140.127 20.3196 140.263 19.9616C140.403 19.6009 140.472 19.1591 140.472 18.6364Z" fill="#13EB4F"/>
</svg>
